<svg width="46" height="46" viewBox="0 0 46 46" fill="none" xmlns="http://www.w3.org/2000/svg">
<g filter="url(#filter0_d_5190_1698)">
<circle cx="23" cy="19" r="13" fill="url(#paint0_linear_5190_1698)"/>
</g>
<g filter="url(#filter1_d_5190_1698)">
<path d="M20.2667 22.6001C19.8667 22.2001 19.5333 21.8001 19.3333 21.2667C19.1333 20.8001 19 20.2667 19 19.6667C19 18.5334 19.4 17.6001 20.2 16.8667C21 16.1334 21.8667 15.6667 23 15.6667C24.1333 15.6667 25.0667 16.0667 25.8 16.8667C26.5333 17.6667 27 18.5334 27 19.6667C27 20.2667 26.8667 20.8001 26.6667 21.3334C26.4 21.8667 26.1333 22.2667 25.7333 22.6667L24.7333 21.6667C25 21.4001 25.2 21.1334 25.4 20.7334C25.5333 20.4001 25.6667 20.0001 25.6667 19.6667C25.6667 18.9334 25.4 18.3334 24.8667 17.8001C24.3333 17.2667 23.7333 17.0001 23 17.0001C22.2667 17.0001 21.6667 17.2667 21.1333 17.8001C20.6 18.3334 20.3333 18.9334 20.3333 19.6667C20.3333 20.0667 20.4 20.4667 20.6 20.8001C20.7333 21.1334 21 21.4667 21.2667 21.6667L20.2667 22.6001Z" fill="white"/>
</g>
<g filter="url(#filter2_d_5190_1698)">
<path d="M23 21C22.6 21 22.3333 20.8667 22.0667 20.6C21.8 20.3333 21.6667 20.0667 21.6667 19.6667C21.6667 19.2667 21.8 19 22.0667 18.7333C22.3333 18.4667 22.6 18.3333 23 18.3333C23.4 18.3333 23.6667 18.4667 23.9333 18.7333C24.2 19 24.3333 19.2667 24.3333 19.6667C24.3333 20.0667 24.2 20.3333 23.9333 20.6C23.6667 20.8667 23.4 21 23 21Z" fill="white"/>
</g>
<g filter="url(#filter3_d_5190_1698)">
<path d="M29.1333 17.0667C28.8 16.2667 28.3333 15.5333 27.7333 14.9333C27.1333 14.3333 26.4 13.8667 25.6 13.5333C24.8 13.2 23.9333 13 23 13C22.0667 13 21.2 13.2 20.4 13.5333C19.6 13.8667 18.8667 14.3333 18.2667 14.9333C17.6667 15.5333 17.2 16.2667 16.8667 17.0667C16.5333 17.8667 16.3333 18.7333 16.3333 19.6667C16.3333 20.6 16.5333 21.5333 16.8667 22.3333C17.2667 23.1333 17.7333 23.8667 18.4 24.4667L19.3333 23.5333C18.8 23.0667 18.4 22.4667 18.0667 21.8C17.7333 21.1333 17.6667 20.4667 17.6667 19.6667C17.6667 18.2 18.2 16.9333 19.2 15.8667C20.2 14.8 21.5333 14.3333 23 14.3333C24.4667 14.3333 25.7333 14.8667 26.8 15.8667C27.8667 16.8667 28.3333 18.2 28.3333 19.6667C28.3333 20.4667 28.2 21.1333 27.8667 21.8C27.5333 22.4667 27.1333 23.0667 26.6 23.5333L27.5333 24.4667C28.1333 23.8667 28.6667 23.1333 29.0667 22.3333C29.4667 21.5333 29.6 20.6 29.6 19.6667C29.6667 18.7333 29.4667 17.8667 29.1333 17.0667Z" fill="white"/>
</g>
<defs>
<filter id="filter0_d_5190_1698" x="0" y="0" width="46" height="46" filterUnits="userSpaceOnUse" color-interpolation-filters="sRGB">
<feFlood flood-opacity="0" result="BackgroundImageFix"/>
<feColorMatrix in="SourceAlpha" type="matrix" values="0 0 0 0 0 0 0 0 0 0 0 0 0 0 0 0 0 0 127 0" result="hardAlpha"/>
<feOffset dy="4"/>
<feGaussianBlur stdDeviation="5"/>
<feComposite in2="hardAlpha" operator="out"/>
<feColorMatrix type="matrix" values="0 0 0 0 0 0 0 0 0 0 0 0 0 0 0 0 0 0 0.1 0"/>
<feBlend mode="normal" in2="BackgroundImageFix" result="effect1_dropShadow_5190_1698"/>
<feBlend mode="normal" in="SourceGraphic" in2="effect1_dropShadow_5190_1698" result="shape"/>
</filter>
<filter id="filter1_d_5190_1698" x="9" y="9.66675" width="28" height="27" filterUnits="userSpaceOnUse" color-interpolation-filters="sRGB">
<feFlood flood-opacity="0" result="BackgroundImageFix"/>
<feColorMatrix in="SourceAlpha" type="matrix" values="0 0 0 0 0 0 0 0 0 0 0 0 0 0 0 0 0 0 127 0" result="hardAlpha"/>
<feOffset dy="4"/>
<feGaussianBlur stdDeviation="5"/>
<feComposite in2="hardAlpha" operator="out"/>
<feColorMatrix type="matrix" values="0 0 0 0 0 0 0 0 0 0 0 0 0 0 0 0 0 0 0.1 0"/>
<feBlend mode="normal" in2="BackgroundImageFix" result="effect1_dropShadow_5190_1698"/>
<feBlend mode="normal" in="SourceGraphic" in2="effect1_dropShadow_5190_1698" result="shape"/>
</filter>
<filter id="filter2_d_5190_1698" x="11.6667" y="12.3333" width="22.6667" height="22.6667" filterUnits="userSpaceOnUse" color-interpolation-filters="sRGB">
<feFlood flood-opacity="0" result="BackgroundImageFix"/>
<feColorMatrix in="SourceAlpha" type="matrix" values="0 0 0 0 0 0 0 0 0 0 0 0 0 0 0 0 0 0 127 0" result="hardAlpha"/>
<feOffset dy="4"/>
<feGaussianBlur stdDeviation="5"/>
<feComposite in2="hardAlpha" operator="out"/>
<feColorMatrix type="matrix" values="0 0 0 0 0 0 0 0 0 0 0 0 0 0 0 0 0 0 0.1 0"/>
<feBlend mode="normal" in2="BackgroundImageFix" result="effect1_dropShadow_5190_1698"/>
<feBlend mode="normal" in="SourceGraphic" in2="effect1_dropShadow_5190_1698" result="shape"/>
</filter>
<filter id="filter3_d_5190_1698" x="6.33333" y="7" width="33.2794" height="31.4667" filterUnits="userSpaceOnUse" color-interpolation-filters="sRGB">
<feFlood flood-opacity="0" result="BackgroundImageFix"/>
<feColorMatrix in="SourceAlpha" type="matrix" values="0 0 0 0 0 0 0 0 0 0 0 0 0 0 0 0 0 0 127 0" result="hardAlpha"/>
<feOffset dy="4"/>
<feGaussianBlur stdDeviation="5"/>
<feComposite in2="hardAlpha" operator="out"/>
<feColorMatrix type="matrix" values="0 0 0 0 0 0 0 0 0 0 0 0 0 0 0 0 0 0 0.1 0"/>
<feBlend mode="normal" in2="BackgroundImageFix" result="effect1_dropShadow_5190_1698"/>
<feBlend mode="normal" in="SourceGraphic" in2="effect1_dropShadow_5190_1698" result="shape"/>
</filter>
<linearGradient id="paint0_linear_5190_1698" x1="17.696" y1="-81.6087" x2="41.2842" y2="-76.8398" gradientUnits="userSpaceOnUse">
<stop stop-color="#F279D0"/>
<stop offset="1" stop-color="#EF4444"/>
</linearGradient>
</defs>
</svg>
