<svg width="145" height="18" viewBox="0 0 145 18" fill="none" xmlns="http://www.w3.org/2000/svg">
<path d="M8.22981 3.45695C6.11698 3.45695 4.31085 4.1211 3.28852 5.58562V3.79754H0V18H3.28852V12.1249C4.31085 13.5894 6.11698 14.2535 8.22981 14.2535C11.1946 14.2535 14.0912 12.789 14.0912 8.85525C14.0912 4.92148 11.1946 3.45695 8.22981 3.45695ZM6.98597 11.4948C4.56644 11.4948 3.28852 10.5752 3.28852 8.85525C3.28852 7.15232 4.51532 6.2157 6.93485 6.2157C9.35438 6.2157 10.6493 7.15232 10.6493 8.85525C10.6493 10.5752 9.42254 11.4948 6.98597 11.4948Z" fill="black"/>
<path d="M23.6931 3.45695C21.921 3.45695 20.5238 4.05298 19.2459 5.85809V3.79754H15.9574V13.913H19.2459V8.42952C20.8987 6.6755 22.347 6.33491 23.6079 6.33491C24.4598 6.33491 25.1754 6.43709 26.2489 6.7947V3.91675C25.4481 3.62725 24.7154 3.45695 23.6931 3.45695Z" fill="black"/>
<path d="M34.7055 14.2535C39.3061 14.2535 41.896 12.3122 41.896 8.85525C41.896 5.3983 39.3061 3.45695 34.7055 3.45695C30.1221 3.45695 27.5321 5.3983 27.5321 8.85525C27.5321 12.3122 30.1221 14.2535 34.7055 14.2535ZM34.7055 11.614C32.2349 11.614 30.974 10.7625 30.974 8.85525C30.974 6.96499 32.2349 6.0965 34.7055 6.0965C37.1932 6.0965 38.4541 6.96499 38.4541 8.85525C38.4541 10.7625 37.1932 11.614 34.7055 11.614Z" fill="black"/>
<path d="M51.992 3.45695C49.8791 3.45695 48.073 4.1211 47.0507 5.58562V3.79754H43.7621V18H47.0507V12.1249C48.073 13.5894 49.8791 14.2535 51.992 14.2535C54.9567 14.2535 57.8534 12.789 57.8534 8.85525C57.8534 4.92148 54.9567 3.45695 51.992 3.45695ZM50.7481 11.4948C48.3286 11.4948 47.0507 10.5752 47.0507 8.85525C47.0507 7.15232 48.2775 6.2157 50.697 6.2157C53.1165 6.2157 54.4115 7.15232 54.4115 8.85525C54.4115 10.5752 53.1847 11.4948 50.7481 11.4948Z" fill="black"/>
<path d="M66.8248 11.7332C64.4734 11.7332 63.0762 11.1542 62.8206 9.46831H73.6915C73.6915 5.21097 70.7608 3.45695 66.5521 3.45695C62.4628 3.45695 59.4469 5.24503 59.4469 8.85525C59.4469 12.4655 62.3094 14.2535 66.7225 14.2535C70.7437 14.2535 72.9247 12.8231 73.5892 10.3879H70.3007C69.8918 11.1883 68.9717 11.7332 66.8248 11.7332ZM66.5521 5.75591C68.5287 5.75591 69.7895 6.26679 70.2326 7.59508H62.9569C63.3999 6.26679 64.6608 5.75591 66.5521 5.75591Z" fill="black"/>
<path d="M83.2961 3.45695C81.5241 3.45695 80.1269 4.05298 78.8489 5.85809V3.79754H75.5604V13.913H78.8489V8.42952C80.5017 6.6755 81.95 6.33491 83.2109 6.33491C84.0629 6.33491 84.7785 6.43709 85.8519 6.7947V3.91675C85.0511 3.62725 84.3184 3.45695 83.2961 3.45695Z" fill="black"/>
<path d="M95.5282 2.28193C96.0734 2.28193 96.5505 2.31599 97.5388 2.40113V0.170293C96.3972 0.0340582 95.5282 0 94.5229 0C91.507 0 90.0417 1.26017 90.0417 3.45695V3.79754H87.4347V6.31788H90.0417V13.913H93.3302V6.31788H97.5388V3.79754H93.3302C93.3472 2.69063 93.7562 2.28193 95.5282 2.28193Z" fill="black"/>
<path d="M106.534 3.45695C104.012 3.45695 101.78 3.8316 99.6162 4.37654L100.247 6.69253C102.615 6.07947 104.319 5.85809 105.989 5.85809C107.659 5.85809 109.533 6.18165 109.635 7.9527C108.204 7.61211 106.517 7.33964 104.728 7.33964C101.746 7.33964 98.7813 8.10596 98.7813 10.8307C98.7813 13.2148 100.673 14.1343 103.501 14.1343C105.563 14.1343 107.761 13.6235 109.635 12.6017V13.913H112.924V8.73604C112.89 4.83633 110.794 3.45695 106.534 3.45695ZM104.609 11.7332C103.007 11.7332 102.24 11.4948 102.24 10.6604C102.24 9.82592 103.211 9.50237 105.137 9.50237C106.773 9.50237 108.306 9.72375 109.635 10.0132V10.8817C108.255 11.2564 105.972 11.7332 104.609 11.7332Z" fill="black"/>
<path d="M118.285 13.913V9.9281C118.285 7.42479 120.006 6.2157 122.715 6.2157C125.424 6.2157 126.293 7.40776 126.293 9.74078V13.913H129.565V8.63387C129.548 4.83633 127.401 3.45695 124.163 3.45695C121.318 3.45695 119.546 4.51277 118.285 6.11353V3.79754H114.996V13.913H118.285Z" fill="black"/>
<path d="M131.13 10.5071C131.181 13.4702 134.282 14.2535 138.491 14.2535C142.359 14.2535 145 13.5894 145 10.7285C145 8.02081 142.478 7.90161 138.508 7.56102C135.39 7.28855 134.913 7.16935 134.913 6.53926C134.913 5.97729 135.577 5.63671 137.878 5.63671C140.161 5.63671 141.149 5.89215 141.2 6.82876H144.659C144.472 4.18921 141.609 3.45695 138.014 3.45695C134.453 3.45695 131.454 4.1211 131.454 6.77767C131.454 9.11069 133.567 9.48534 137.827 9.79186C140.979 10.0132 141.541 10.0814 141.541 10.8817C141.541 11.631 141.081 11.9716 138.321 11.9716C135.424 11.9716 134.623 11.5118 134.572 10.5071H131.13Z" fill="black"/>
</svg>
