<svg width="24" height="24" viewBox="0 0 24 24" fill="none" xmlns="http://www.w3.org/2000/svg">
<path d="M9.80031 14.2999C8.60031 13.6999 7.20031 14.1999 6.60031 15.3999L4.40031 19.7999C4.30031 19.8999 4.40031 20.0999 4.50031 20.0999C4.50031 20.0999 4.50031 20.0999 4.60031 20.0999L6.70031 20.4999C6.70031 20.4999 6.80031 20.4999 6.80031 20.5999L8.30031 21.9999C8.40031 22.0999 8.60031 22.0999 8.70031 21.9999C8.70031 21.9999 8.70031 21.9999 8.70031 21.8999L10.9003 17.4999C11.5003 16.2999 11.0003 14.7999 9.80031 14.2999Z" fill="url(#paint0_linear_5243_2413)"/>
<path d="M14.2004 14.2999C15.4004 13.6999 16.8004 14.1999 17.4004 15.3999L19.6004 19.7999C19.7004 19.8999 19.6004 20.0999 19.5004 20.0999C19.5004 20.0999 19.5004 20.0999 19.4004 20.0999L17.3004 20.4999C17.3004 20.4999 17.2004 20.4999 17.2004 20.5999L15.7004 21.9999C15.6004 22.0999 15.4004 22.0999 15.3004 21.9999C15.3004 21.9999 15.3004 21.9999 15.3004 21.8999L13.1004 17.4999C12.5004 16.2999 13.0004 14.7999 14.2004 14.2999Z" fill="url(#paint1_linear_5243_2413)"/>
<path d="M12.0002 19.7C16.9002 19.7 20.9002 15.7 20.9002 10.9C20.9002 6 16.9002 2 12.0002 2C7.1002 2 3.1002 6 3.1002 10.8C3.1002 15.7 7.1002 19.7 12.0002 19.7Z" fill="url(#paint2_linear_5243_2413)"/>
<path d="M12.0002 18.1C16.0002 18.1 19.3002 14.8 19.3002 10.8C19.3002 6.8 16.0002 3.5 12.0002 3.5C8.0002 3.5 4.7002 6.8 4.7002 10.8C4.7002 14.8 8.0002 18.1 12.0002 18.1Z" fill="url(#paint3_linear_5243_2413)"/>
<path d="M12.0003 19.0001C16.6003 19.0001 20.3003 15.3001 20.3003 10.8001C20.3003 6.3001 16.6003 2.6001 12.0003 2.6001C7.40029 2.6001 3.70029 6.3001 3.70029 10.8001C3.70029 15.3001 7.40029 19.0001 12.0003 19.0001Z" fill="#303030"/>
<path d="M12.0002 16.0001C14.9002 16.0001 17.2002 13.7001 17.2002 10.8001C17.2002 7.9001 14.9002 5.6001 12.0002 5.6001C9.10019 5.6001 6.80019 7.9001 6.80019 10.8001C6.80019 13.7001 9.10019 16.0001 12.0002 16.0001Z" fill="url(#paint4_linear_5243_2413)"/>
<path d="M15.0001 9.5999C15.0001 8.3999 13.9001 7.8999 12.2001 7.8999C10.5001 7.8999 9.2001 8.4999 9.1001 9.9999H10.8001C10.8001 9.2999 11.3001 8.9999 12.3001 8.9999C13.2001 8.9999 13.5001 9.1999 13.5001 9.5999C13.5001 10.7999 9.1001 10.3999 9.0001 12.6999V13.4999H15.0001V12.2999H10.9001C11.2001 11.3999 15.0001 11.6999 15.0001 9.5999Z" fill="#303030"/>
<path d="M15.0001 9.5999C15.0001 8.3999 13.9001 7.8999 12.2001 7.8999C10.5001 7.8999 9.2001 8.4999 9.1001 9.9999H10.8001C10.8001 9.2999 11.3001 8.9999 12.3001 8.9999C13.2001 8.9999 13.5001 9.1999 13.5001 9.5999C13.5001 10.7999 9.1001 10.3999 9.0001 12.6999V13.4999H15.0001V12.2999H10.9001C11.2001 11.3999 15.0001 11.6999 15.0001 9.5999Z" fill="#303030"/>
<defs>
<linearGradient id="paint0_linear_5243_2413" x1="6.49931" y1="21.0966" x2="9.70001" y2="14.2175" gradientUnits="userSpaceOnUse">
<stop offset="0.06" stop-color="#A031F7"/>
<stop offset="0.55" stop-color="#53059E"/>
</linearGradient>
<linearGradient id="paint1_linear_5243_2413" x1="17.501" y1="21.0961" x2="14.3006" y2="14.2175" gradientUnits="userSpaceOnUse">
<stop offset="0.06" stop-color="#A031F7"/>
<stop offset="0.55" stop-color="#53059E"/>
</linearGradient>
<linearGradient id="paint2_linear_5243_2413" x1="12.0002" y1="19.6532" x2="12.0002" y2="2" gradientUnits="userSpaceOnUse">
<stop stop-color="#9D9D9C"/>
<stop offset="1" stop-color="#EDEDED"/>
</linearGradient>
<linearGradient id="paint3_linear_5243_2413" x1="4.676" y1="10.8266" x2="19.3241" y2="10.8266" gradientUnits="userSpaceOnUse">
<stop stop-color="#BF3413"/>
<stop offset="1" stop-color="#EA4E00"/>
</linearGradient>
<linearGradient id="paint4_linear_5243_2413" x1="12.0002" y1="16.0068" x2="12.0002" y2="5.6467" gradientUnits="userSpaceOnUse">
<stop stop-color="#9D9D9C"/>
<stop offset="1" stop-color="#EDEDED"/>
</linearGradient>
</defs>
</svg>
